{
  "asset": {
    "version": "2.0",
    "generator": "M00NW4LK original procedural rig"
  },
  "scene": 0,
  "scenes": [
    {
      "name": "SUJETO_M_RIG_SCENE",
      "nodes": [0]
    }
  ],
  "nodes": [
    {
      "name": "SUJETO_M_RIG",
      "children": [1]
    },
    {
      "name": "hips",
      "translation": [0, 1.7, 0],
      "children": [2, 3, 4, 5, 6]
    },
    {
      "name": "head",
      "translation": [0, 1.15, 0]
    },
    {
      "name": "legLeft",
      "translation": [-0.25, -0.3, 0]
    },
    {
      "name": "legRight",
      "translation": [0.25, -0.3, 0]
    },
    {
      "name": "armLeft",
      "translation": [-0.58, 0.66, 0]
    },
    {
      "name": "armRight",
      "translation": [0.58, 0.66, 0]
    }
  ],
  "buffers": [
    {
      "byteLength": 340,
      "uri": "data:application/octet-stream;base64,"
    }
  ],
  "bufferViews": [
    { "buffer": 0, "byteOffset": 0, "byteLength": 20 },
    { "buffer": 0, "byteOffset": 20, "byteLength": 80 },
    { "buffer": 0, "byteOffset": 100, "byteLength": 80 },
    { "buffer": 0, "byteOffset": 180, "byteLength": 80 },
    { "buffer": 0, "byteOffset": 260, "byteLength": 80 }
  ],
  "accessors": [
    {
      "bufferView": 0,
      "componentType": 5126,
      "count": 5,
      "type": "SCALAR",
      "min": [0],
      "max": [1.18]
    },
    { "bufferView": 1, "componentType": 5126, "count": 5, "type": "VEC4" },
    { "bufferView": 2, "componentType": 5126, "count": 5, "type": "VEC4" },
    { "bufferView": 3, "componentType": 5126, "count": 5, "type": "VEC4" },
    { "bufferView": 4, "componentType": 5126, "count": 5, "type": "VEC4" }
  ],
  "animations": [
    {
      "name": "moonwalk",
      "samplers": [
        { "input": 0, "output": 1, "interpolation": "LINEAR" },
        { "input": 0, "output": 2, "interpolation": "LINEAR" },
        { "input": 0, "output": 3, "interpolation": "LINEAR" },
        { "input": 0, "output": 4, "interpolation": "LINEAR" }
      ],
      "channels": [
        { "sampler": 0, "target": { "node": 3, "path": "rotation" } },
        { "sampler": 1, "target": { "node": 4, "path": "rotation" } },
        { "sampler": 2, "target": { "node": 5, "path": "rotation" } },
        { "sampler": 3, "target": { "node": 6, "path": "rotation" } }
      ]
    }
  ]
}
